<?xml version="1.0" encoding="utf-8" standalone="no"?>
<!DOCTYPE svg PUBLIC "-//W3C//DTD SVG 1.1//EN"
  "http://www.w3.org/Graphics/SVG/1.1/DTD/svg11.dtd">
<!-- Created with matplotlib (https://matplotlib.org/) -->
<svg height="345.6pt" version="1.1" viewBox="0 0 345.6 345.6" width="345.6pt" xmlns="http://www.w3.org/2000/svg" xmlns:xlink="http://www.w3.org/1999/xlink">
 <defs>
  <style type="text/css">
*{stroke-linecap:butt;stroke-linejoin:round;}
  </style>
 </defs>
 <g id="figure_1">
  <g id="patch_1">
   <path d="M 0 345.6 
L 345.6 345.6 
L 345.6 0 
L 0 0 
z
" style="fill:#ffffff;"/>
  </g>
  <g id="axes_1">
   <g id="patch_2">
    <path d="M 57.17 134.8 
L 179.637232 134.8 
L 179.637232 26.88 
L 57.17 26.88 
z
" style="fill:#ffffff;"/>
   </g>
   <g id="matplotlib.axis_1">
    <g id="xtick_1">
     <g id="line2d_1">
      <path clip-path="url(#p942cfd16cf)" d="M 61.831539 134.8 
L 61.831539 26.88 
" style="fill:none;stroke:#b0b0b0;stroke-linecap:square;stroke-width:0.8;"/>
     </g>
     <g id="line2d_2">
      <defs>
       <path d="M 0 0 
L 0 3.5 
" id="mb3f44b4910" style="stroke:#000000;stroke-width:0.8;"/>
      </defs>
      <g>
       <use style="stroke:#000000;stroke-width:0.8;" x="61.831539" xlink:href="#mb3f44b4910" y="134.8"/>
      </g>
     </g>
     <g id="text_1">
      <!-- 0 -->
      <defs>
       <path d="M 31.78125 66.40625 
Q 24.171875 66.40625 20.328125 58.90625 
Q 16.5 51.421875 16.5 36.375 
Q 16.5 21.390625 20.328125 13.890625 
Q 24.171875 6.390625 31.78125 6.390625 
Q 39.453125 6.390625 43.28125 13.890625 
Q 47.125 21.390625 47.125 36.375 
Q 47.125 51.421875 43.28125 58.90625 
Q 39.453125 66.40625 31.78125 66.40625 
z
M 31.78125 74.21875 
Q 44.046875 74.21875 50.515625 64.515625 
Q 56.984375 54.828125 56.984375 36.375 
Q 56.984375 17.96875 50.515625 8.265625 
Q 44.046875 -1.421875 31.78125 -1.421875 
Q 19.53125 -1.421875 13.0625 8.265625 
Q 6.59375 17.96875 6.59375 36.375 
Q 6.59375 54.828125 13.0625 64.515625 
Q 19.53125 74.21875 31.78125 74.21875 
z
" id="DejaVuSans-48"/>
      </defs>
      <g transform="translate(58.650289 149.398437)scale(0.1 -0.1)">
       <use xlink:href="#DejaVuSans-48"/>
      </g>
     </g>
    </g>
    <g id="xtick_2">
     <g id="line2d_3">
      <path clip-path="url(#p942cfd16cf)" d="M 107.0892 134.8 
L 107.0892 26.88 
" style="fill:none;stroke:#b0b0b0;stroke-linecap:square;stroke-width:0.8;"/>
     </g>
     <g id="line2d_4">
      <g>
       <use style="stroke:#000000;stroke-width:0.8;" x="107.0892" xlink:href="#mb3f44b4910" y="134.8"/>
      </g>
     </g>
     <g id="text_2">
      <!-- 50 -->
      <defs>
       <path d="M 10.796875 72.90625 
L 49.515625 72.90625 
L 49.515625 64.59375 
L 19.828125 64.59375 
L 19.828125 46.734375 
Q 21.96875 47.46875 24.109375 47.828125 
Q 26.265625 48.1875 28.421875 48.1875 
Q 40.625 48.1875 47.75 41.5 
Q 54.890625 34.8125 54.890625 23.390625 
Q 54.890625 11.625 47.5625 5.09375 
Q 40.234375 -1.421875 26.90625 -1.421875 
Q 22.3125 -1.421875 17.546875 -0.640625 
Q 12.796875 0.140625 7.71875 1.703125 
L 7.71875 11.625 
Q 12.109375 9.234375 16.796875 8.0625 
Q 21.484375 6.890625 26.703125 6.890625 
Q 35.15625 6.890625 40.078125 11.328125 
Q 45.015625 15.765625 45.015625 23.390625 
Q 45.015625 31 40.078125 35.4375 
Q 35.15625 39.890625 26.703125 39.890625 
Q 22.75 39.890625 18.8125 39.015625 
Q 14.890625 38.140625 10.796875 36.28125 
z
" id="DejaVuSans-53"/>
      </defs>
      <g transform="translate(100.7267 149.398437)scale(0.1 -0.1)">
       <use xlink:href="#DejaVuSans-53"/>
       <use x="63.623047" xlink:href="#DejaVuSans-48"/>
      </g>
     </g>
    </g>
    <g id="xtick_3">
     <g id="line2d_5">
      <path clip-path="url(#p942cfd16cf)" d="M 152.346862 134.8 
L 152.346862 26.88 
" style="fill:none;stroke:#b0b0b0;stroke-linecap:square;stroke-width:0.8;"/>
     </g>
     <g id="line2d_6">
      <g>
       <use style="stroke:#000000;stroke-width:0.8;" x="152.346862" xlink:href="#mb3f44b4910" y="134.8"/>
      </g>
     </g>
     <g id="text_3">
      <!-- 100 -->
      <defs>
       <path d="M 12.40625 8.296875 
L 28.515625 8.296875 
L 28.515625 63.921875 
L 10.984375 60.40625 
L 10.984375 69.390625 
L 28.421875 72.90625 
L 38.28125 72.90625 
L 38.28125 8.296875 
L 54.390625 8.296875 
L 54.390625 0 
L 12.40625 0 
z
" id="DejaVuSans-49"/>
      </defs>
      <g transform="translate(142.803112 149.398437)scale(0.1 -0.1)">
       <use xlink:href="#DejaVuSans-49"/>
       <use x="63.623047" xlink:href="#DejaVuSans-48"/>
       <use x="127.246094" xlink:href="#DejaVuSans-48"/>
      </g>
     </g>
    </g>
    <g id="text_4">
     <!-- Iteration ($k$) -->
     <defs>
      <path d="M 9.8125 72.90625 
L 19.671875 72.90625 
L 19.671875 0 
L 9.8125 0 
z
" id="DejaVuSans-73"/>
      <path d="M 18.3125 70.21875 
L 18.3125 54.6875 
L 36.8125 54.6875 
L 36.8125 47.703125 
L 18.3125 47.703125 
L 18.3125 18.015625 
Q 18.3125 11.328125 20.140625 9.421875 
Q 21.96875 7.515625 27.59375 7.515625 
L 36.8125 7.515625 
L 36.8125 0 
L 27.59375 0 
Q 17.1875 0 13.234375 3.875 
Q 9.28125 7.765625 9.28125 18.015625 
L 9.28125 47.703125 
L 2.6875 47.703125 
L 2.6875 54.6875 
L 9.28125 54.6875 
L 9.28125 70.21875 
z
" id="DejaVuSans-116"/>
      <path d="M 56.203125 29.59375 
L 56.203125 25.203125 
L 14.890625 25.203125 
Q 15.484375 15.921875 20.484375 11.0625 
Q 25.484375 6.203125 34.421875 6.203125 
Q 39.59375 6.203125 44.453125 7.46875 
Q 49.3125 8.734375 54.109375 11.28125 
L 54.109375 2.78125 
Q 49.265625 0.734375 44.1875 -0.34375 
Q 39.109375 -1.421875 33.890625 -1.421875 
Q 20.796875 -1.421875 13.15625 6.1875 
Q 5.515625 13.8125 5.515625 26.8125 
Q 5.515625 40.234375 12.765625 48.109375 
Q 20.015625 56 32.328125 56 
Q 43.359375 56 49.78125 48.890625 
Q 56.203125 41.796875 56.203125 29.59375 
z
M 47.21875 32.234375 
Q 47.125 39.59375 43.09375 43.984375 
Q 39.0625 48.390625 32.421875 48.390625 
Q 24.90625 48.390625 20.390625 44.140625 
Q 15.875 39.890625 15.1875 32.171875 
z
" id="DejaVuSans-101"/>
      <path d="M 41.109375 46.296875 
Q 39.59375 47.171875 37.8125 47.578125 
Q 36.03125 48 33.890625 48 
Q 26.265625 48 22.1875 43.046875 
Q 18.109375 38.09375 18.109375 28.8125 
L 18.109375 0 
L 9.078125 0 
L 9.078125 54.6875 
L 18.109375 54.6875 
L 18.109375 46.1875 
Q 20.953125 51.171875 25.484375 53.578125 
Q 30.03125 56 36.53125 56 
Q 37.453125 56 38.578125 55.875 
Q 39.703125 55.765625 41.0625 55.515625 
z
" id="DejaVuSans-114"/>
      <path d="M 34.28125 27.484375 
Q 23.390625 27.484375 19.1875 25 
Q 14.984375 22.515625 14.984375 16.5 
Q 14.984375 11.71875 18.140625 8.90625 
Q 21.296875 6.109375 26.703125 6.109375 
Q 34.1875 6.109375 38.703125 11.40625 
Q 43.21875 16.703125 43.21875 25.484375 
L 43.21875 27.484375 
z
M 52.203125 31.203125 
L 52.203125 0 
L 43.21875 0 
L 43.21875 8.296875 
Q 40.140625 3.328125 35.546875 0.953125 
Q 30.953125 -1.421875 24.3125 -1.421875 
Q 15.921875 -1.421875 10.953125 3.296875 
Q 6 8.015625 6 15.921875 
Q 6 25.140625 12.171875 29.828125 
Q 18.359375 34.515625 30.609375 34.515625 
L 43.21875 34.515625 
L 43.21875 35.40625 
Q 43.21875 41.609375 39.140625 45 
Q 35.0625 48.390625 27.6875 48.390625 
Q 23 48.390625 18.546875 47.265625 
Q 14.109375 46.140625 10.015625 43.890625 
L 10.015625 52.203125 
Q 14.9375 54.109375 19.578125 55.046875 
Q 24.21875 56 28.609375 56 
Q 40.484375 56 46.34375 49.84375 
Q 52.203125 43.703125 52.203125 31.203125 
z
" id="DejaVuSans-97"/>
      <path d="M 9.421875 54.6875 
L 18.40625 54.6875 
L 18.40625 0 
L 9.421875 0 
z
M 9.421875 75.984375 
L 18.40625 75.984375 
L 18.40625 64.59375 
L 9.421875 64.59375 
z
" id="DejaVuSans-105"/>
      <path d="M 30.609375 48.390625 
Q 23.390625 48.390625 19.1875 42.75 
Q 14.984375 37.109375 14.984375 27.296875 
Q 14.984375 17.484375 19.15625 11.84375 
Q 23.34375 6.203125 30.609375 6.203125 
Q 37.796875 6.203125 41.984375 11.859375 
Q 46.1875 17.53125 46.1875 27.296875 
Q 46.1875 37.015625 41.984375 42.703125 
Q 37.796875 48.390625 30.609375 48.390625 
z
M 30.609375 56 
Q 42.328125 56 49.015625 48.375 
Q 55.71875 40.765625 55.71875 27.296875 
Q 55.71875 13.875 49.015625 6.21875 
Q 42.328125 -1.421875 30.609375 -1.421875 
Q 18.84375 -1.421875 12.171875 6.21875 
Q 5.515625 13.875 5.515625 27.296875 
Q 5.515625 40.765625 12.171875 48.375 
Q 18.84375 56 30.609375 56 
z
" id="DejaVuSans-111"/>
      <path d="M 54.890625 33.015625 
L 54.890625 0 
L 45.90625 0 
L 45.90625 32.71875 
Q 45.90625 40.484375 42.875 44.328125 
Q 39.84375 48.1875 33.796875 48.1875 
Q 26.515625 48.1875 22.3125 43.546875 
Q 18.109375 38.921875 18.109375 30.90625 
L 18.109375 0 
L 9.078125 0 
L 9.078125 54.6875 
L 18.109375 54.6875 
L 18.109375 46.1875 
Q 21.34375 51.125 25.703125 53.5625 
Q 30.078125 56 35.796875 56 
Q 45.21875 56 50.046875 50.171875 
Q 54.890625 44.34375 54.890625 33.015625 
z
" id="DejaVuSans-110"/>
      <path id="DejaVuSans-32"/>
      <path d="M 31 75.875 
Q 24.46875 64.65625 21.28125 53.65625 
Q 18.109375 42.671875 18.109375 31.390625 
Q 18.109375 20.125 21.3125 9.0625 
Q 24.515625 -2 31 -13.1875 
L 23.1875 -13.1875 
Q 15.875 -1.703125 12.234375 9.375 
Q 8.59375 20.453125 8.59375 31.390625 
Q 8.59375 42.28125 12.203125 53.3125 
Q 15.828125 64.359375 23.1875 75.875 
z
" id="DejaVuSans-40"/>
      <path d="M 18.3125 75.984375 
L 27.296875 75.984375 
L 18.703125 31.6875 
L 49.515625 54.6875 
L 61.1875 54.6875 
L 26.8125 28.515625 
L 51.90625 0 
L 41.015625 0 
L 17.671875 26.703125 
L 12.5 0 
L 3.515625 0 
z
" id="DejaVuSans-Oblique-107"/>
      <path d="M 8.015625 75.875 
L 15.828125 75.875 
Q 23.140625 64.359375 26.78125 53.3125 
Q 30.421875 42.28125 30.421875 31.390625 
Q 30.421875 20.453125 26.78125 9.375 
Q 23.140625 -1.703125 15.828125 -13.1875 
L 8.015625 -13.1875 
Q 14.5 -2 17.703125 9.0625 
Q 20.90625 20.125 20.90625 31.390625 
Q 20.90625 42.671875 17.703125 53.65625 
Q 14.5 64.65625 8.015625 75.875 
z
" id="DejaVuSans-41"/>
     </defs>
     <g transform="translate(88.803616 163.076562)scale(0.1 -0.1)">
      <use transform="translate(0 0.015625)" xlink:href="#DejaVuSans-73"/>
      <use transform="translate(29.492188 0.015625)" xlink:href="#DejaVuSans-116"/>
      <use transform="translate(68.701172 0.015625)" xlink:href="#DejaVuSans-101"/>
      <use transform="translate(130.224609 0.015625)" xlink:href="#DejaVuSans-114"/>
      <use transform="translate(171.337891 0.015625)" xlink:href="#DejaVuSans-97"/>
      <use transform="translate(232.617188 0.015625)" xlink:href="#DejaVuSans-116"/>
      <use transform="translate(271.826172 0.015625)" xlink:href="#DejaVuSans-105"/>
      <use transform="translate(299.609375 0.015625)" xlink:href="#DejaVuSans-111"/>
      <use transform="translate(360.791016 0.015625)" xlink:href="#DejaVuSans-110"/>
      <use transform="translate(424.169922 0.015625)" xlink:href="#DejaVuSans-32"/>
      <use transform="translate(455.957031 0.015625)" xlink:href="#DejaVuSans-40"/>
      <use transform="translate(494.970703 0.015625)" xlink:href="#DejaVuSans-Oblique-107"/>
      <use transform="translate(552.880859 0.015625)" xlink:href="#DejaVuSans-41"/>
     </g>
    </g>
   </g>
   <g id="matplotlib.axis_2">
    <g id="ytick_1">
     <g id="line2d_7">
      <path clip-path="url(#p942cfd16cf)" d="M 57.17 132.773859 
L 179.637232 132.773859 
" style="fill:none;stroke:#b0b0b0;stroke-linecap:square;stroke-width:0.8;"/>
     </g>
     <g id="line2d_8">
      <defs>
       <path d="M 0 0 
L -3.5 0 
" id="m2981fa6391" style="stroke:#000000;stroke-width:0.8;"/>
      </defs>
      <g>
       <use style="stroke:#000000;stroke-width:0.8;" x="57.17" xlink:href="#m2981fa6391" y="132.773859"/>
      </g>
     </g>
     <g id="text_5">
      <!-- 200 -->
      <defs>
       <path d="M 19.1875 8.296875 
L 53.609375 8.296875 
L 53.609375 0 
L 7.328125 0 
L 7.328125 8.296875 
Q 12.9375 14.109375 22.625 23.890625 
Q 32.328125 33.6875 34.8125 36.53125 
Q 39.546875 41.84375 41.421875 45.53125 
Q 43.3125 49.21875 43.3125 52.78125 
Q 43.3125 58.59375 39.234375 62.25 
Q 35.15625 65.921875 28.609375 65.921875 
Q 23.96875 65.921875 18.8125 64.3125 
Q 13.671875 62.703125 7.8125 59.421875 
L 7.8125 69.390625 
Q 13.765625 71.78125 18.9375 73 
Q 24.125 74.21875 28.421875 74.21875 
Q 39.75 74.21875 46.484375 68.546875 
Q 53.21875 62.890625 53.21875 53.421875 
Q 53.21875 48.921875 51.53125 44.890625 
Q 49.859375 40.875 45.40625 35.40625 
Q 44.1875 33.984375 37.640625 27.21875 
Q 31.109375 20.453125 19.1875 8.296875 
z
" id="DejaVuSans-50"/>
      </defs>
      <g transform="translate(31.0825 136.573077)scale(0.1 -0.1)">
       <use xlink:href="#DejaVuSans-50"/>
       <use x="63.623047" xlink:href="#DejaVuSans-48"/>
       <use x="127.246094" xlink:href="#DejaVuSans-48"/>
      </g>
     </g>
    </g>
    <g id="ytick_2">
     <g id="line2d_9">
      <path clip-path="url(#p942cfd16cf)" d="M 57.17 109.582949 
L 179.637232 109.582949 
" style="fill:none;stroke:#b0b0b0;stroke-linecap:square;stroke-width:0.8;"/>
     </g>
     <g id="line2d_10">
      <g>
       <use style="stroke:#000000;stroke-width:0.8;" x="57.17" xlink:href="#m2981fa6391" y="109.582949"/>
      </g>
     </g>
     <g id="text_6">
      <!-- 400 -->
      <defs>
       <path d="M 37.796875 64.3125 
L 12.890625 25.390625 
L 37.796875 25.390625 
z
M 35.203125 72.90625 
L 47.609375 72.90625 
L 47.609375 25.390625 
L 58.015625 25.390625 
L 58.015625 17.1875 
L 47.609375 17.1875 
L 47.609375 0 
L 37.796875 0 
L 37.796875 17.1875 
L 4.890625 17.1875 
L 4.890625 26.703125 
z
" id="DejaVuSans-52"/>
      </defs>
      <g transform="translate(31.0825 113.382168)scale(0.1 -0.1)">
       <use xlink:href="#DejaVuSans-52"/>
       <use x="63.623047" xlink:href="#DejaVuSans-48"/>
       <use x="127.246094" xlink:href="#DejaVuSans-48"/>
      </g>
     </g>
    </g>
    <g id="ytick_3">
     <g id="line2d_11">
      <path clip-path="url(#p942cfd16cf)" d="M 57.17 86.392039 
L 179.637232 86.392039 
" style="fill:none;stroke:#b0b0b0;stroke-linecap:square;stroke-width:0.8;"/>
     </g>
     <g id="line2d_12">
      <g>
       <use style="stroke:#000000;stroke-width:0.8;" x="57.17" xlink:href="#m2981fa6391" y="86.392039"/>
      </g>
     </g>
     <g id="text_7">
      <!-- 600 -->
      <defs>
       <path d="M 33.015625 40.375 
Q 26.375 40.375 22.484375 35.828125 
Q 18.609375 31.296875 18.609375 23.390625 
Q 18.609375 15.53125 22.484375 10.953125 
Q 26.375 6.390625 33.015625 6.390625 
Q 39.65625 6.390625 43.53125 10.953125 
Q 47.40625 15.53125 47.40625 23.390625 
Q 47.40625 31.296875 43.53125 35.828125 
Q 39.65625 40.375 33.015625 40.375 
z
M 52.59375 71.296875 
L 52.59375 62.3125 
Q 48.875 64.0625 45.09375 64.984375 
Q 41.3125 65.921875 37.59375 65.921875 
Q 27.828125 65.921875 22.671875 59.328125 
Q 17.53125 52.734375 16.796875 39.40625 
Q 19.671875 43.65625 24.015625 45.921875 
Q 28.375 48.1875 33.59375 48.1875 
Q 44.578125 48.1875 50.953125 41.515625 
Q 57.328125 34.859375 57.328125 23.390625 
Q 57.328125 12.15625 50.6875 5.359375 
Q 44.046875 -1.421875 33.015625 -1.421875 
Q 20.359375 -1.421875 13.671875 8.265625 
Q 6.984375 17.96875 6.984375 36.375 
Q 6.984375 53.65625 15.1875 63.9375 
Q 23.390625 74.21875 37.203125 74.21875 
Q 40.921875 74.21875 44.703125 73.484375 
Q 48.484375 72.75 52.59375 71.296875 
z
" id="DejaVuSans-54"/>
      </defs>
      <g transform="translate(31.0825 90.191258)scale(0.1 -0.1)">
       <use xlink:href="#DejaVuSans-54"/>
       <use x="63.623047" xlink:href="#DejaVuSans-48"/>
       <use x="127.246094" xlink:href="#DejaVuSans-48"/>
      </g>
     </g>
    </g>
    <g id="ytick_4">
     <g id="line2d_13">
      <path clip-path="url(#p942cfd16cf)" d="M 57.17 63.20113 
L 179.637232 63.20113 
" style="fill:none;stroke:#b0b0b0;stroke-linecap:square;stroke-width:0.8;"/>
     </g>
     <g id="line2d_14">
      <g>
       <use style="stroke:#000000;stroke-width:0.8;" x="57.17" xlink:href="#m2981fa6391" y="63.20113"/>
      </g>
     </g>
     <g id="text_8">
      <!-- 800 -->
      <defs>
       <path d="M 31.78125 34.625 
Q 24.75 34.625 20.71875 30.859375 
Q 16.703125 27.09375 16.703125 20.515625 
Q 16.703125 13.921875 20.71875 10.15625 
Q 24.75 6.390625 31.78125 6.390625 
Q 38.8125 6.390625 42.859375 10.171875 
Q 46.921875 13.96875 46.921875 20.515625 
Q 46.921875 27.09375 42.890625 30.859375 
Q 38.875 34.625 31.78125 34.625 
z
M 21.921875 38.8125 
Q 15.578125 40.375 12.03125 44.71875 
Q 8.5 49.078125 8.5 55.328125 
Q 8.5 64.0625 14.71875 69.140625 
Q 20.953125 74.21875 31.78125 74.21875 
Q 42.671875 74.21875 48.875 69.140625 
Q 55.078125 64.0625 55.078125 55.328125 
Q 55.078125 49.078125 51.53125 44.71875 
Q 48 40.375 41.703125 38.8125 
Q 48.828125 37.15625 52.796875 32.3125 
Q 56.78125 27.484375 56.78125 20.515625 
Q 56.78125 9.90625 50.3125 4.234375 
Q 43.84375 -1.421875 31.78125 -1.421875 
Q 19.734375 -1.421875 13.25 4.234375 
Q 6.78125 9.90625 6.78125 20.515625 
Q 6.78125 27.484375 10.78125 32.3125 
Q 14.796875 37.15625 21.921875 38.8125 
z
M 18.3125 54.390625 
Q 18.3125 48.734375 21.84375 45.5625 
Q 25.390625 42.390625 31.78125 42.390625 
Q 38.140625 42.390625 41.71875 45.5625 
Q 45.3125 48.734375 45.3125 54.390625 
Q 45.3125 60.0625 41.71875 63.234375 
Q 38.140625 66.40625 31.78125 66.40625 
Q 25.390625 66.40625 21.84375 63.234375 
Q 18.3125 60.0625 18.3125 54.390625 
z
" id="DejaVuSans-56"/>
      </defs>
      <g transform="translate(31.0825 67.000348)scale(0.1 -0.1)">
       <use xlink:href="#DejaVuSans-56"/>
       <use x="63.623047" xlink:href="#DejaVuSans-48"/>
       <use x="127.246094" xlink:href="#DejaVuSans-48"/>
      </g>
     </g>
    </g>
    <g id="ytick_5">
     <g id="line2d_15">
      <path clip-path="url(#p942cfd16cf)" d="M 57.17 40.01022 
L 179.637232 40.01022 
" style="fill:none;stroke:#b0b0b0;stroke-linecap:square;stroke-width:0.8;"/>
     </g>
     <g id="line2d_16">
      <g>
       <use style="stroke:#000000;stroke-width:0.8;" x="57.17" xlink:href="#m2981fa6391" y="40.01022"/>
      </g>
     </g>
     <g id="text_9">
      <!-- 1000 -->
      <g transform="translate(24.72 43.809439)scale(0.1 -0.1)">
       <use xlink:href="#DejaVuSans-49"/>
       <use x="63.623047" xlink:href="#DejaVuSans-48"/>
       <use x="127.246094" xlink:href="#DejaVuSans-48"/>
       <use x="190.869141" xlink:href="#DejaVuSans-48"/>
      </g>
     </g>
    </g>
    <g id="text_10">
     <!-- Total Loss -->
     <defs>
      <path d="M -0.296875 72.90625 
L 61.375 72.90625 
L 61.375 64.59375 
L 35.5 64.59375 
L 35.5 0 
L 25.59375 0 
L 25.59375 64.59375 
L -0.296875 64.59375 
z
" id="DejaVuSans-84"/>
      <path d="M 9.421875 75.984375 
L 18.40625 75.984375 
L 18.40625 0 
L 9.421875 0 
z
" id="DejaVuSans-108"/>
      <path d="M 9.8125 72.90625 
L 19.671875 72.90625 
L 19.671875 8.296875 
L 55.171875 8.296875 
L 55.171875 0 
L 9.8125 0 
z
" id="DejaVuSans-76"/>
      <path d="M 44.28125 53.078125 
L 44.28125 44.578125 
Q 40.484375 46.53125 36.375 47.5 
Q 32.28125 48.484375 27.875 48.484375 
Q 21.1875 48.484375 17.84375 46.4375 
Q 14.5 44.390625 14.5 40.28125 
Q 14.5 37.15625 16.890625 35.375 
Q 19.28125 33.59375 26.515625 31.984375 
L 29.59375 31.296875 
Q 39.15625 29.25 43.1875 25.515625 
Q 47.21875 21.78125 47.21875 15.09375 
Q 47.21875 7.46875 41.1875 3.015625 
Q 35.15625 -1.421875 24.609375 -1.421875 
Q 20.21875 -1.421875 15.453125 -0.5625 
Q 10.6875 0.296875 5.421875 2 
L 5.421875 11.28125 
Q 10.40625 8.6875 15.234375 7.390625 
Q 20.0625 6.109375 24.8125 6.109375 
Q 31.15625 6.109375 34.5625 8.28125 
Q 37.984375 10.453125 37.984375 14.40625 
Q 37.984375 18.0625 35.515625 20.015625 
Q 33.0625 21.96875 24.703125 23.78125 
L 21.578125 24.515625 
Q 13.234375 26.265625 9.515625 29.90625 
Q 5.8125 33.546875 5.8125 39.890625 
Q 5.8125 47.609375 11.28125 51.796875 
Q 16.75 56 26.8125 56 
Q 31.78125 56 36.171875 55.265625 
Q 40.578125 54.546875 44.28125 53.078125 
z
" id="DejaVuSans-115"/>
     </defs>
     <g transform="translate(18.640312 105.99625)rotate(-90)scale(0.1 -0.1)">
      <use xlink:href="#DejaVuSans-84"/>
      <use x="60.818359" xlink:href="#DejaVuSans-111"/>
      <use x="122" xlink:href="#DejaVuSans-116"/>
      <use x="161.208984" xlink:href="#DejaVuSans-97"/>
      <use x="222.488281" xlink:href="#DejaVuSans-108"/>
      <use x="250.271484" xlink:href="#DejaVuSans-32"/>
      <use x="282.058594" xlink:href="#DejaVuSans-76"/>
      <use x="337.755859" xlink:href="#DejaVuSans-111"/>
      <use x="398.9375" xlink:href="#DejaVuSans-115"/>
      <use x="451.037109" xlink:href="#DejaVuSans-115"/>
     </g>
    </g>
   </g>
   <g id="line2d_17">
    <path clip-path="url(#p942cfd16cf)" d="M 62.736692 100.506485 
L 63.641846 102.749659 
L 64.546999 108.312625 
L 65.452152 115.147781 
L 66.357305 120.956198 
L 67.262458 124.688593 
L 68.167612 126.573906 
L 69.072765 127.25014 
L 69.977918 127.253299 
L 70.883071 126.932016 
L 71.788225 126.496548 
L 72.693378 126.07742 
L 73.598531 125.744611 
L 74.503684 125.53791 
L 75.408838 125.47371 
L 76.313991 125.550925 
L 77.219144 125.755047 
L 78.124297 126.061498 
L 79.02945 126.438732 
L 79.934604 126.851269 
L 80.839757 127.262667 
L 81.74491 127.638259 
L 82.650063 127.947682 
L 83.555217 128.175115 
L 84.46037 128.294646 
L 85.365523 128.30264 
L 86.270676 128.204273 
L 87.175829 128.011996 
L 88.080983 127.745985 
L 88.986136 127.436687 
L 89.891289 127.126431 
L 90.796442 126.865523 
L 91.701596 126.700879 
L 92.606749 126.661144 
L 93.511902 126.74656 
L 94.417055 126.929913 
L 95.322209 127.168045 
L 96.227362 127.417249 
L 97.132515 127.644985 
L 98.037668 127.834192 
L 98.942821 127.981113 
L 99.847975 128.090026 
L 100.753128 128.168055 
L 101.658281 128.221846 
L 102.563434 128.256331 
L 103.468588 128.274961 
L 104.373741 128.280532 
L 105.278894 128.275881 
L 106.184047 128.264102 
L 107.0892 128.248282 
L 107.994354 128.230974 
L 108.899507 128.213711 
L 109.80466 128.196792 
L 110.709813 128.179468 
L 111.614967 128.160443 
L 112.52012 128.138555 
L 113.425273 128.11336 
L 114.330426 128.085455 
L 115.235579 128.056403 
L 116.140733 128.028332 
L 117.045886 128.003378 
L 117.951039 127.983183 
L 118.856192 127.968633 
L 119.761346 127.959873 
L 120.666499 127.956535 
L 121.571652 127.958028 
L 122.476805 127.963761 
L 123.381959 127.973227 
L 124.287112 127.98596 
L 125.192265 128.001436 
L 126.097418 128.018985 
L 127.002571 128.037765 
L 127.907725 128.056811 
L 128.812878 128.075137 
L 129.718031 128.091841 
L 130.623184 128.106188 
L 131.528338 128.117658 
L 132.433491 128.125944 
L 133.338644 128.130934 
L 134.243797 128.132684 
L 135.14895 128.131393 
L 136.054104 128.127399 
L 136.959257 128.121166 
L 137.86441 128.113275 
L 138.769563 128.104394 
L 139.674717 128.095232 
L 140.57987 128.086471 
L 141.485023 128.078711 
L 142.390176 128.072405 
L 143.29533 128.067832 
L 144.200483 128.065081 
L 145.105636 128.064078 
L 146.010789 128.064612 
L 146.915942 128.066385 
L 147.821096 128.069054 
L 148.726249 128.072275 
L 149.631402 128.075726 
L 150.536555 128.079136 
L 151.441709 128.082291 
L 152.346862 128.085045 
L 153.252015 128.087317 
L 154.157168 128.089085 
L 155.062321 128.090379 
L 155.967475 128.091263 
L 156.872628 128.091817 
L 157.777781 128.092124 
L 158.682934 128.092253 
L 159.588088 128.092251 
L 160.493241 128.092139 
L 161.398394 128.091917 
L 162.303547 128.091565 
L 163.208701 128.091061 
L 164.113854 128.090381 
L 165.019007 128.089516 
L 165.92416 128.088469 
L 166.829313 128.087265 
L 167.734467 128.085947 
L 168.63962 128.084574 
L 169.544773 128.083214 
L 170.449926 128.081943 
L 171.35508 128.080836 
L 172.260233 128.079957 
L 173.165386 128.07936 
L 174.070539 128.079077 
" style="fill:none;stroke:#1f77b4;stroke-linecap:square;stroke-width:1.5;"/>
   </g>
   <g id="patch_3">
    <path d="M 57.17 134.8 
L 57.17 26.88 
" style="fill:none;stroke:#000000;stroke-linecap:square;stroke-linejoin:miter;stroke-width:0.8;"/>
   </g>
   <g id="patch_4">
    <path d="M 179.637232 134.8 
L 179.637232 26.88 
" style="fill:none;stroke:#000000;stroke-linecap:square;stroke-linejoin:miter;stroke-width:0.8;"/>
   </g>
   <g id="patch_5">
    <path d="M 57.17 134.8 
L 179.637232 134.8 
" style="fill:none;stroke:#000000;stroke-linecap:square;stroke-linejoin:miter;stroke-width:0.8;"/>
   </g>
   <g id="patch_6">
    <path d="M 57.17 26.88 
L 179.637232 26.88 
" style="fill:none;stroke:#000000;stroke-linecap:square;stroke-linejoin:miter;stroke-width:0.8;"/>
   </g>
   <g id="text_11">
    <!-- momentum -->
    <defs>
     <path d="M 52 44.1875 
Q 55.375 50.25 60.0625 53.125 
Q 64.75 56 71.09375 56 
Q 79.640625 56 84.28125 50.015625 
Q 88.921875 44.046875 88.921875 33.015625 
L 88.921875 0 
L 79.890625 0 
L 79.890625 32.71875 
Q 79.890625 40.578125 77.09375 44.375 
Q 74.3125 48.1875 68.609375 48.1875 
Q 61.625 48.1875 57.5625 43.546875 
Q 53.515625 38.921875 53.515625 30.90625 
L 53.515625 0 
L 44.484375 0 
L 44.484375 32.71875 
Q 44.484375 40.625 41.703125 44.40625 
Q 38.921875 48.1875 33.109375 48.1875 
Q 26.21875 48.1875 22.15625 43.53125 
Q 18.109375 38.875 18.109375 30.90625 
L 18.109375 0 
L 9.078125 0 
L 9.078125 54.6875 
L 18.109375 54.6875 
L 18.109375 46.1875 
Q 21.1875 51.21875 25.484375 53.609375 
Q 29.78125 56 35.6875 56 
Q 41.65625 56 45.828125 52.96875 
Q 50 49.953125 52 44.1875 
z
" id="DejaVuSans-109"/>
     <path d="M 8.5 21.578125 
L 8.5 54.6875 
L 17.484375 54.6875 
L 17.484375 21.921875 
Q 17.484375 14.15625 20.5 10.265625 
Q 23.53125 6.390625 29.59375 6.390625 
Q 36.859375 6.390625 41.078125 11.03125 
Q 45.3125 15.671875 45.3125 23.6875 
L 45.3125 54.6875 
L 54.296875 54.6875 
L 54.296875 0 
L 45.3125 0 
L 45.3125 8.40625 
Q 42.046875 3.421875 37.71875 1 
Q 33.40625 -1.421875 27.6875 -1.421875 
Q 18.265625 -1.421875 13.375 4.4375 
Q 8.5 10.296875 8.5 21.578125 
z
M 31.109375 56 
z
" id="DejaVuSans-117"/>
    </defs>
    <g transform="translate(83.550178 20.88)scale(0.12 -0.12)">
     <use xlink:href="#DejaVuSans-109"/>
     <use x="97.412109" xlink:href="#DejaVuSans-111"/>
     <use x="158.59375" xlink:href="#DejaVuSans-109"/>
     <use x="256.005859" xlink:href="#DejaVuSans-101"/>
     <use x="317.529297" xlink:href="#DejaVuSans-110"/>
     <use x="380.908203" xlink:href="#DejaVuSans-116"/>
     <use x="420.117188" xlink:href="#DejaVuSans-117"/>
     <use x="483.496094" xlink:href="#DejaVuSans-109"/>
    </g>
   </g>
  </g>
  <g id="axes_2">
   <g id="patch_7">
    <path d="M 207.037232 134.8 
L 329.504463 134.8 
L 329.504463 26.88 
L 207.037232 26.88 
z
" style="fill:#ffffff;"/>
   </g>
   <g id="matplotlib.axis_3">
    <g id="xtick_4">
     <g id="line2d_18">
      <path clip-path="url(#pe0cf77aff3)" d="M 211.683809 134.8 
L 211.683809 26.88 
" style="fill:none;stroke:#b0b0b0;stroke-linecap:square;stroke-width:0.8;"/>
     </g>
     <g id="line2d_19">
      <g>
       <use style="stroke:#000000;stroke-width:0.8;" x="211.683809" xlink:href="#mb3f44b4910" y="134.8"/>
      </g>
     </g>
     <g id="text_12">
      <!-- 0 -->
      <g transform="translate(208.502559 149.398437)scale(0.1 -0.1)">
       <use xlink:href="#DejaVuSans-48"/>
      </g>
     </g>
    </g>
    <g id="xtick_5">
     <g id="line2d_20">
      <path clip-path="url(#pe0cf77aff3)" d="M 257.689531 134.8 
L 257.689531 26.88 
" style="fill:none;stroke:#b0b0b0;stroke-linecap:square;stroke-width:0.8;"/>
     </g>
     <g id="line2d_21">
      <g>
       <use style="stroke:#000000;stroke-width:0.8;" x="257.689531" xlink:href="#mb3f44b4910" y="134.8"/>
      </g>
     </g>
     <g id="text_13">
      <!-- 50 -->
      <g transform="translate(251.327031 149.398437)scale(0.1 -0.1)">
       <use xlink:href="#DejaVuSans-53"/>
       <use x="63.623047" xlink:href="#DejaVuSans-48"/>
      </g>
     </g>
    </g>
    <g id="xtick_6">
     <g id="line2d_22">
      <path clip-path="url(#pe0cf77aff3)" d="M 303.695253 134.8 
L 303.695253 26.88 
" style="fill:none;stroke:#b0b0b0;stroke-linecap:square;stroke-width:0.8;"/>
     </g>
     <g id="line2d_23">
      <g>
       <use style="stroke:#000000;stroke-width:0.8;" x="303.695253" xlink:href="#mb3f44b4910" y="134.8"/>
      </g>
     </g>
     <g id="text_14">
      <!-- 100 -->
      <g transform="translate(294.151503 149.398437)scale(0.1 -0.1)">
       <use xlink:href="#DejaVuSans-49"/>
       <use x="63.623047" xlink:href="#DejaVuSans-48"/>
       <use x="127.246094" xlink:href="#DejaVuSans-48"/>
      </g>
     </g>
    </g>
    <g id="text_15">
     <!-- Iteration ($k$) -->
     <g transform="translate(238.670847 163.076562)scale(0.1 -0.1)">
      <use transform="translate(0 0.015625)" xlink:href="#DejaVuSans-73"/>
      <use transform="translate(29.492188 0.015625)" xlink:href="#DejaVuSans-116"/>
      <use transform="translate(68.701172 0.015625)" xlink:href="#DejaVuSans-101"/>
      <use transform="translate(130.224609 0.015625)" xlink:href="#DejaVuSans-114"/>
      <use transform="translate(171.337891 0.015625)" xlink:href="#DejaVuSans-97"/>
      <use transform="translate(232.617188 0.015625)" xlink:href="#DejaVuSans-116"/>
      <use transform="translate(271.826172 0.015625)" xlink:href="#DejaVuSans-105"/>
      <use transform="translate(299.609375 0.015625)" xlink:href="#DejaVuSans-111"/>
      <use transform="translate(360.791016 0.015625)" xlink:href="#DejaVuSans-110"/>
      <use transform="translate(424.169922 0.015625)" xlink:href="#DejaVuSans-32"/>
      <use transform="translate(455.957031 0.015625)" xlink:href="#DejaVuSans-40"/>
      <use transform="translate(494.970703 0.015625)" xlink:href="#DejaVuSans-Oblique-107"/>
      <use transform="translate(552.880859 0.015625)" xlink:href="#DejaVuSans-41"/>
     </g>
    </g>
   </g>
   <g id="matplotlib.axis_4">
    <g id="ytick_6">
     <g id="line2d_24">
      <path clip-path="url(#pe0cf77aff3)" d="M 207.037232 132.773859 
L 329.504463 132.773859 
" style="fill:none;stroke:#b0b0b0;stroke-linecap:square;stroke-width:0.8;"/>
     </g>
     <g id="line2d_25">
      <g>
       <use style="stroke:#000000;stroke-width:0.8;" x="207.037232" xlink:href="#m2981fa6391" y="132.773859"/>
      </g>
     </g>
    </g>
    <g id="ytick_7">
     <g id="line2d_26">
      <path clip-path="url(#pe0cf77aff3)" d="M 207.037232 109.582949 
L 329.504463 109.582949 
" style="fill:none;stroke:#b0b0b0;stroke-linecap:square;stroke-width:0.8;"/>
     </g>
     <g id="line2d_27">
      <g>
       <use style="stroke:#000000;stroke-width:0.8;" x="207.037232" xlink:href="#m2981fa6391" y="109.582949"/>
      </g>
     </g>
    </g>
    <g id="ytick_8">
     <g id="line2d_28">
      <path clip-path="url(#pe0cf77aff3)" d="M 207.037232 86.392039 
L 329.504463 86.392039 
" style="fill:none;stroke:#b0b0b0;stroke-linecap:square;stroke-width:0.8;"/>
     </g>
     <g id="line2d_29">
      <g>
       <use style="stroke:#000000;stroke-width:0.8;" x="207.037232" xlink:href="#m2981fa6391" y="86.392039"/>
      </g>
     </g>
    </g>
    <g id="ytick_9">
     <g id="line2d_30">
      <path clip-path="url(#pe0cf77aff3)" d="M 207.037232 63.20113 
L 329.504463 63.20113 
" style="fill:none;stroke:#b0b0b0;stroke-linecap:square;stroke-width:0.8;"/>
     </g>
     <g id="line2d_31">
      <g>
       <use style="stroke:#000000;stroke-width:0.8;" x="207.037232" xlink:href="#m2981fa6391" y="63.20113"/>
      </g>
     </g>
    </g>
    <g id="ytick_10">
     <g id="line2d_32">
      <path clip-path="url(#pe0cf77aff3)" d="M 207.037232 40.01022 
L 329.504463 40.01022 
" style="fill:none;stroke:#b0b0b0;stroke-linecap:square;stroke-width:0.8;"/>
     </g>
     <g id="line2d_33">
      <g>
       <use style="stroke:#000000;stroke-width:0.8;" x="207.037232" xlink:href="#m2981fa6391" y="40.01022"/>
      </g>
     </g>
    </g>
    <g id="text_16">
     <!-- Total Loss -->
     <g transform="translate(200.957544 105.99625)rotate(-90)scale(0.1 -0.1)">
      <use xlink:href="#DejaVuSans-84"/>
      <use x="60.818359" xlink:href="#DejaVuSans-111"/>
      <use x="122" xlink:href="#DejaVuSans-116"/>
      <use x="161.208984" xlink:href="#DejaVuSans-97"/>
      <use x="222.488281" xlink:href="#DejaVuSans-108"/>
      <use x="250.271484" xlink:href="#DejaVuSans-32"/>
      <use x="282.058594" xlink:href="#DejaVuSans-76"/>
      <use x="337.755859" xlink:href="#DejaVuSans-111"/>
      <use x="398.9375" xlink:href="#DejaVuSans-115"/>
      <use x="451.037109" xlink:href="#DejaVuSans-115"/>
     </g>
    </g>
   </g>
   <g id="line2d_34">
    <path clip-path="url(#pe0cf77aff3)" d="M 212.603924 100.505398 
L 213.524038 106.631244 
L 214.444153 113.733944 
L 215.364267 119.58877 
L 216.284382 123.475425 
L 217.204496 125.708084 
L 218.124611 126.832383 
L 219.044725 127.292282 
L 219.964839 127.390134 
L 220.884954 127.318545 
L 221.805068 127.195704 
L 222.725183 127.090513 
L 223.645297 127.038882 
L 224.565412 127.054349 
L 225.485526 127.135324 
L 226.40564 127.270327 
L 227.325755 127.441973 
L 228.245869 127.630089 
L 229.165984 127.814162 
L 230.086098 127.97616 
L 231.006213 128.111913 
L 231.926327 128.20004 
L 232.846442 128.233689 
L 233.766556 128.214305 
L 234.68667 128.148345 
L 235.606785 128.046707 
L 236.526899 127.924033 
L 237.447014 127.797372 
L 238.367128 127.683908 
L 239.287243 127.59804 
L 240.207357 127.548764 
L 241.127471 127.538385 
L 242.047586 127.563042 
L 242.9677 127.614656 
L 243.887815 127.683447 
L 244.807929 127.760098 
L 245.728044 127.837107 
L 246.648158 127.909256 
L 247.568273 127.973467 
L 248.488387 128.028335 
L 249.408501 128.073614 
L 250.328616 128.109761 
L 251.24873 128.137611 
L 252.168845 128.158157 
L 253.088959 128.172406 
L 254.009074 128.181298 
L 254.929188 128.185658 
L 255.849302 128.186185 
L 256.769417 128.183462 
L 257.689531 128.177987 
L 258.609646 128.170207 
L 259.52976 128.160561 
L 260.449875 128.149505 
L 261.369989 128.137518 
L 262.290104 128.125105 
L 263.210218 128.11277 
L 264.130332 128.100988 
L 265.050447 128.090175 
L 265.970561 128.080667 
L 266.890676 128.072699 
L 267.81079 128.066401 
L 268.730905 128.061803 
L 269.651019 128.058847 
L 270.571133 128.0574 
L 271.491248 128.057278 
L 272.411362 128.058263 
L 273.331477 128.060118 
L 274.251591 128.062609 
L 275.171706 128.065509 
L 276.09182 128.068615 
L 277.011935 128.07175 
L 277.932049 128.074767 
L 278.852163 128.07755 
L 279.772278 128.080016 
L 280.692392 128.08211 
L 281.612507 128.083805 
L 282.532621 128.085097 
L 283.452736 128.086003 
L 284.37285 128.086555 
L 285.292964 128.086797 
L 286.213079 128.086782 
L 287.133193 128.086567 
L 288.053308 128.08621 
L 288.973422 128.085765 
L 289.893537 128.085284 
L 290.813651 128.08481 
L 291.733765 128.084378 
L 292.65388 128.084017 
L 293.573994 128.083743 
L 294.494109 128.083567 
L 295.414223 128.08349 
L 296.334338 128.083508 
L 297.254452 128.083612 
L 298.174567 128.083788 
L 299.094681 128.08402 
L 300.014795 128.084293 
L 300.93491 128.084588 
L 301.855024 128.08489 
L 302.775139 128.085184 
L 303.695253 128.085457 
L 304.615368 128.085699 
L 305.535482 128.085903 
L 306.455596 128.086063 
L 307.375711 128.086176 
L 308.295825 128.086243 
L 309.21594 128.086264 
L 310.136054 128.086244 
L 311.056169 128.086186 
L 311.976283 128.086097 
L 312.896398 128.085983 
L 313.816512 128.085852 
L 314.736626 128.085711 
L 315.656741 128.085565 
L 316.576855 128.085423 
L 317.49697 128.085289 
L 318.417084 128.085169 
L 319.337199 128.085066 
L 320.257313 128.084984 
L 321.177427 128.084923 
L 322.097542 128.084885 
L 323.017656 128.08487 
L 323.937771 128.084877 
" style="fill:none;stroke:#1f77b4;stroke-linecap:square;stroke-width:1.5;"/>
   </g>
   <g id="patch_8">
    <path d="M 207.037232 134.8 
L 207.037232 26.88 
" style="fill:none;stroke:#000000;stroke-linecap:square;stroke-linejoin:miter;stroke-width:0.8;"/>
   </g>
   <g id="patch_9">
    <path d="M 329.504463 134.8 
L 329.504463 26.88 
" style="fill:none;stroke:#000000;stroke-linecap:square;stroke-linejoin:miter;stroke-width:0.8;"/>
   </g>
   <g id="patch_10">
    <path d="M 207.037232 134.8 
L 329.504463 134.8 
" style="fill:none;stroke:#000000;stroke-linecap:square;stroke-linejoin:miter;stroke-width:0.8;"/>
   </g>
   <g id="patch_11">
    <path d="M 207.037232 26.88 
L 329.504463 26.88 
" style="fill:none;stroke:#000000;stroke-linecap:square;stroke-linejoin:miter;stroke-width:0.8;"/>
   </g>
   <g id="text_17">
    <!-- nesterov -->
    <defs>
     <path d="M 2.984375 54.6875 
L 12.5 54.6875 
L 29.59375 8.796875 
L 46.6875 54.6875 
L 56.203125 54.6875 
L 35.6875 0 
L 23.484375 0 
z
" id="DejaVuSans-118"/>
    </defs>
    <g transform="translate(241.919597 20.88)scale(0.12 -0.12)">
     <use xlink:href="#DejaVuSans-110"/>
     <use x="63.378906" xlink:href="#DejaVuSans-101"/>
     <use x="124.902344" xlink:href="#DejaVuSans-115"/>
     <use x="177.001953" xlink:href="#DejaVuSans-116"/>
     <use x="216.210938" xlink:href="#DejaVuSans-101"/>
     <use x="277.734375" xlink:href="#DejaVuSans-114"/>
     <use x="318.816406" xlink:href="#DejaVuSans-111"/>
     <use x="379.998047" xlink:href="#DejaVuSans-118"/>
    </g>
   </g>
  </g>
  <g id="axes_3">
   <g id="patch_12">
    <path d="M 57.17 302.2 
L 179.637232 302.2 
L 179.637232 194.28 
L 57.17 194.28 
z
" style="fill:#ffffff;"/>
   </g>
   <g id="matplotlib.axis_5">
    <g id="xtick_7">
     <g id="line2d_35">
      <path clip-path="url(#p3fb2b5e630)" d="M 60.748588 302.2 
L 60.748588 194.28 
" style="fill:none;stroke:#b0b0b0;stroke-linecap:square;stroke-width:0.8;"/>
     </g>
     <g id="line2d_36">
      <g>
       <use style="stroke:#000000;stroke-width:0.8;" x="60.748588" xlink:href="#mb3f44b4910" y="302.2"/>
      </g>
     </g>
     <g id="text_18">
      <!-- 0 -->
      <g transform="translate(57.567338 316.798437)scale(0.1 -0.1)">
       <use xlink:href="#DejaVuSans-48"/>
      </g>
     </g>
    </g>
    <g id="xtick_8">
     <g id="line2d_37">
      <path clip-path="url(#p3fb2b5e630)" d="M 100.510676 302.2 
L 100.510676 194.28 
" style="fill:none;stroke:#b0b0b0;stroke-linecap:square;stroke-width:0.8;"/>
     </g>
     <g id="line2d_38">
      <g>
       <use style="stroke:#000000;stroke-width:0.8;" x="100.510676" xlink:href="#mb3f44b4910" y="302.2"/>
      </g>
     </g>
     <g id="text_19">
      <!-- 20 -->
      <g transform="translate(94.148176 316.798437)scale(0.1 -0.1)">
       <use xlink:href="#DejaVuSans-50"/>
       <use x="63.623047" xlink:href="#DejaVuSans-48"/>
      </g>
     </g>
    </g>
    <g id="xtick_9">
     <g id="line2d_39">
      <path clip-path="url(#p3fb2b5e630)" d="M 140.272764 302.2 
L 140.272764 194.28 
" style="fill:none;stroke:#b0b0b0;stroke-linecap:square;stroke-width:0.8;"/>
     </g>
     <g id="line2d_40">
      <g>
       <use style="stroke:#000000;stroke-width:0.8;" x="140.272764" xlink:href="#mb3f44b4910" y="302.2"/>
      </g>
     </g>
     <g id="text_20">
      <!-- 40 -->
      <g transform="translate(133.910264 316.798437)scale(0.1 -0.1)">
       <use xlink:href="#DejaVuSans-52"/>
       <use x="63.623047" xlink:href="#DejaVuSans-48"/>
      </g>
     </g>
    </g>
    <g id="xtick_10">
     <g id="line2d_41">
      <path clip-path="url(#p3fb2b5e630)" d="M 180.034852 302.2 
L 180.034852 194.28 
" style="fill:none;stroke:#b0b0b0;stroke-linecap:square;stroke-width:0.8;"/>
     </g>
     <g id="line2d_42">
      <g>
       <use style="stroke:#000000;stroke-width:0.8;" x="180.034852" xlink:href="#mb3f44b4910" y="302.2"/>
      </g>
     </g>
     <g id="text_21">
      <!-- 60 -->
      <g transform="translate(173.672352 316.798437)scale(0.1 -0.1)">
       <use xlink:href="#DejaVuSans-54"/>
       <use x="63.623047" xlink:href="#DejaVuSans-48"/>
      </g>
     </g>
    </g>
    <g id="text_22">
     <!-- Iteration ($k$) -->
     <g transform="translate(88.803616 330.476562)scale(0.1 -0.1)">
      <use transform="translate(0 0.015625)" xlink:href="#DejaVuSans-73"/>
      <use transform="translate(29.492188 0.015625)" xlink:href="#DejaVuSans-116"/>
      <use transform="translate(68.701172 0.015625)" xlink:href="#DejaVuSans-101"/>
      <use transform="translate(130.224609 0.015625)" xlink:href="#DejaVuSans-114"/>
      <use transform="translate(171.337891 0.015625)" xlink:href="#DejaVuSans-97"/>
      <use transform="translate(232.617188 0.015625)" xlink:href="#DejaVuSans-116"/>
      <use transform="translate(271.826172 0.015625)" xlink:href="#DejaVuSans-105"/>
      <use transform="translate(299.609375 0.015625)" xlink:href="#DejaVuSans-111"/>
      <use transform="translate(360.791016 0.015625)" xlink:href="#DejaVuSans-110"/>
      <use transform="translate(424.169922 0.015625)" xlink:href="#DejaVuSans-32"/>
      <use transform="translate(455.957031 0.015625)" xlink:href="#DejaVuSans-40"/>
      <use transform="translate(494.970703 0.015625)" xlink:href="#DejaVuSans-Oblique-107"/>
      <use transform="translate(552.880859 0.015625)" xlink:href="#DejaVuSans-41"/>
     </g>
    </g>
   </g>
   <g id="matplotlib.axis_6">
    <g id="ytick_11">
     <g id="line2d_43">
      <path clip-path="url(#p3fb2b5e630)" d="M 57.17 300.173859 
L 179.637232 300.173859 
" style="fill:none;stroke:#b0b0b0;stroke-linecap:square;stroke-width:0.8;"/>
     </g>
     <g id="line2d_44">
      <g>
       <use style="stroke:#000000;stroke-width:0.8;" x="57.17" xlink:href="#m2981fa6391" y="300.173859"/>
      </g>
     </g>
     <g id="text_23">
      <!-- 200 -->
      <g transform="translate(31.0825 303.973077)scale(0.1 -0.1)">
       <use xlink:href="#DejaVuSans-50"/>
       <use x="63.623047" xlink:href="#DejaVuSans-48"/>
       <use x="127.246094" xlink:href="#DejaVuSans-48"/>
      </g>
     </g>
    </g>
    <g id="ytick_12">
     <g id="line2d_45">
      <path clip-path="url(#p3fb2b5e630)" d="M 57.17 276.982949 
L 179.637232 276.982949 
" style="fill:none;stroke:#b0b0b0;stroke-linecap:square;stroke-width:0.8;"/>
     </g>
     <g id="line2d_46">
      <g>
       <use style="stroke:#000000;stroke-width:0.8;" x="57.17" xlink:href="#m2981fa6391" y="276.982949"/>
      </g>
     </g>
     <g id="text_24">
      <!-- 400 -->
      <g transform="translate(31.0825 280.782168)scale(0.1 -0.1)">
       <use xlink:href="#DejaVuSans-52"/>
       <use x="63.623047" xlink:href="#DejaVuSans-48"/>
       <use x="127.246094" xlink:href="#DejaVuSans-48"/>
      </g>
     </g>
    </g>
    <g id="ytick_13">
     <g id="line2d_47">
      <path clip-path="url(#p3fb2b5e630)" d="M 57.17 253.792039 
L 179.637232 253.792039 
" style="fill:none;stroke:#b0b0b0;stroke-linecap:square;stroke-width:0.8;"/>
     </g>
     <g id="line2d_48">
      <g>
       <use style="stroke:#000000;stroke-width:0.8;" x="57.17" xlink:href="#m2981fa6391" y="253.792039"/>
      </g>
     </g>
     <g id="text_25">
      <!-- 600 -->
      <g transform="translate(31.0825 257.591258)scale(0.1 -0.1)">
       <use xlink:href="#DejaVuSans-54"/>
       <use x="63.623047" xlink:href="#DejaVuSans-48"/>
       <use x="127.246094" xlink:href="#DejaVuSans-48"/>
      </g>
     </g>
    </g>
    <g id="ytick_14">
     <g id="line2d_49">
      <path clip-path="url(#p3fb2b5e630)" d="M 57.17 230.60113 
L 179.637232 230.60113 
" style="fill:none;stroke:#b0b0b0;stroke-linecap:square;stroke-width:0.8;"/>
     </g>
     <g id="line2d_50">
      <g>
       <use style="stroke:#000000;stroke-width:0.8;" x="57.17" xlink:href="#m2981fa6391" y="230.60113"/>
      </g>
     </g>
     <g id="text_26">
      <!-- 800 -->
      <g transform="translate(31.0825 234.400348)scale(0.1 -0.1)">
       <use xlink:href="#DejaVuSans-56"/>
       <use x="63.623047" xlink:href="#DejaVuSans-48"/>
       <use x="127.246094" xlink:href="#DejaVuSans-48"/>
      </g>
     </g>
    </g>
    <g id="ytick_15">
     <g id="line2d_51">
      <path clip-path="url(#p3fb2b5e630)" d="M 57.17 207.41022 
L 179.637232 207.41022 
" style="fill:none;stroke:#b0b0b0;stroke-linecap:square;stroke-width:0.8;"/>
     </g>
     <g id="line2d_52">
      <g>
       <use style="stroke:#000000;stroke-width:0.8;" x="57.17" xlink:href="#m2981fa6391" y="207.41022"/>
      </g>
     </g>
     <g id="text_27">
      <!-- 1000 -->
      <g transform="translate(24.72 211.209439)scale(0.1 -0.1)">
       <use xlink:href="#DejaVuSans-49"/>
       <use x="63.623047" xlink:href="#DejaVuSans-48"/>
       <use x="127.246094" xlink:href="#DejaVuSans-48"/>
       <use x="190.869141" xlink:href="#DejaVuSans-48"/>
      </g>
     </g>
    </g>
    <g id="text_28">
     <!-- Total Loss -->
     <g transform="translate(18.640312 273.39625)rotate(-90)scale(0.1 -0.1)">
      <use xlink:href="#DejaVuSans-84"/>
      <use x="60.818359" xlink:href="#DejaVuSans-111"/>
      <use x="122" xlink:href="#DejaVuSans-116"/>
      <use x="161.208984" xlink:href="#DejaVuSans-97"/>
      <use x="222.488281" xlink:href="#DejaVuSans-108"/>
      <use x="250.271484" xlink:href="#DejaVuSans-32"/>
      <use x="282.058594" xlink:href="#DejaVuSans-76"/>
      <use x="337.755859" xlink:href="#DejaVuSans-111"/>
      <use x="398.9375" xlink:href="#DejaVuSans-115"/>
      <use x="451.037109" xlink:href="#DejaVuSans-115"/>
     </g>
    </g>
   </g>
   <g id="line2d_53">
    <path clip-path="url(#p3fb2b5e630)" d="M 62.736692 267.829896 
L 64.724797 199.185455 
L 66.712901 293.023255 
L 68.701006 294.871827 
L 70.68911 295.735946 
L 72.677214 296.101202 
L 74.665319 296.209818 
L 76.653423 296.227656 
L 78.641528 296.196911 
L 80.629632 296.181658 
L 82.617736 296.160426 
L 84.605841 296.160953 
L 86.593945 296.139175 
L 88.58205 296.146702 
L 90.570154 296.129172 
L 92.558258 296.140585 
L 94.546363 296.125084 
L 96.534467 296.137922 
L 98.522572 296.123836 
L 100.510676 296.13665 
L 102.498781 296.123917 
L 104.486885 296.138614 
L 106.474989 296.126491 
L 108.463094 296.138389 
L 110.451198 296.127411 
L 112.439303 296.137208 
L 114.427407 296.127662 
L 116.415511 296.135515 
L 118.403616 296.127348 
L 120.39172 296.133464 
L 122.379825 296.126552 
L 124.367929 296.13118 
L 126.356033 296.12537 
L 128.344138 296.128757 
L 130.332242 296.123889 
L 132.320347 296.126265 
L 134.308451 296.122183 
L 136.296555 296.123745 
L 138.28466 296.120306 
L 140.272764 296.121222 
L 142.260869 296.118301 
L 144.248973 296.118706 
L 146.237078 296.116196 
L 148.225182 296.116202 
L 150.213286 296.114013 
L 152.201391 296.11371 
L 154.189495 296.111768 
L 156.1776 296.111227 
L 158.165704 296.109473 
L 160.153808 296.108749 
L 162.141913 296.107136 
L 164.130017 296.106274 
L 166.118122 296.104764 
L 168.106226 296.103796 
L 170.09433 296.102362 
L 172.082435 296.101315 
L 174.070539 296.099934 
" style="fill:none;stroke:#1f77b4;stroke-linecap:square;stroke-width:1.5;"/>
   </g>
   <g id="patch_13">
    <path d="M 57.17 302.2 
L 57.17 194.28 
" style="fill:none;stroke:#000000;stroke-linecap:square;stroke-linejoin:miter;stroke-width:0.8;"/>
   </g>
   <g id="patch_14">
    <path d="M 179.637232 302.2 
L 179.637232 194.28 
" style="fill:none;stroke:#000000;stroke-linecap:square;stroke-linejoin:miter;stroke-width:0.8;"/>
   </g>
   <g id="patch_15">
    <path d="M 57.17 302.2 
L 179.637232 302.2 
" style="fill:none;stroke:#000000;stroke-linecap:square;stroke-linejoin:miter;stroke-width:0.8;"/>
   </g>
   <g id="patch_16">
    <path d="M 57.17 194.28 
L 179.637232 194.28 
" style="fill:none;stroke:#000000;stroke-linecap:square;stroke-linejoin:miter;stroke-width:0.8;"/>
   </g>
   <g id="text_29">
    <!-- adagrad -->
    <defs>
     <path d="M 45.40625 46.390625 
L 45.40625 75.984375 
L 54.390625 75.984375 
L 54.390625 0 
L 45.40625 0 
L 45.40625 8.203125 
Q 42.578125 3.328125 38.25 0.953125 
Q 33.9375 -1.421875 27.875 -1.421875 
Q 17.96875 -1.421875 11.734375 6.484375 
Q 5.515625 14.40625 5.515625 27.296875 
Q 5.515625 40.1875 11.734375 48.09375 
Q 17.96875 56 27.875 56 
Q 33.9375 56 38.25 53.625 
Q 42.578125 51.265625 45.40625 46.390625 
z
M 14.796875 27.296875 
Q 14.796875 17.390625 18.875 11.75 
Q 22.953125 6.109375 30.078125 6.109375 
Q 37.203125 6.109375 41.296875 11.75 
Q 45.40625 17.390625 45.40625 27.296875 
Q 45.40625 37.203125 41.296875 42.84375 
Q 37.203125 48.484375 30.078125 48.484375 
Q 22.953125 48.484375 18.875 42.84375 
Q 14.796875 37.203125 14.796875 27.296875 
z
" id="DejaVuSans-100"/>
     <path d="M 45.40625 27.984375 
Q 45.40625 37.75 41.375 43.109375 
Q 37.359375 48.484375 30.078125 48.484375 
Q 22.859375 48.484375 18.828125 43.109375 
Q 14.796875 37.75 14.796875 27.984375 
Q 14.796875 18.265625 18.828125 12.890625 
Q 22.859375 7.515625 30.078125 7.515625 
Q 37.359375 7.515625 41.375 12.890625 
Q 45.40625 18.265625 45.40625 27.984375 
z
M 54.390625 6.78125 
Q 54.390625 -7.171875 48.1875 -13.984375 
Q 42 -20.796875 29.203125 -20.796875 
Q 24.46875 -20.796875 20.265625 -20.09375 
Q 16.0625 -19.390625 12.109375 -17.921875 
L 12.109375 -9.1875 
Q 16.0625 -11.328125 19.921875 -12.34375 
Q 23.78125 -13.375 27.78125 -13.375 
Q 36.625 -13.375 41.015625 -8.765625 
Q 45.40625 -4.15625 45.40625 5.171875 
L 45.40625 9.625 
Q 42.625 4.78125 38.28125 2.390625 
Q 33.9375 0 27.875 0 
Q 17.828125 0 11.671875 7.65625 
Q 5.515625 15.328125 5.515625 27.984375 
Q 5.515625 40.671875 11.671875 48.328125 
Q 17.828125 56 27.875 56 
Q 33.9375 56 38.28125 53.609375 
Q 42.625 51.21875 45.40625 46.390625 
L 45.40625 54.6875 
L 54.390625 54.6875 
z
" id="DejaVuSans-103"/>
    </defs>
    <g transform="translate(93.479241 188.28)scale(0.12 -0.12)">
     <use xlink:href="#DejaVuSans-97"/>
     <use x="61.279297" xlink:href="#DejaVuSans-100"/>
     <use x="124.755859" xlink:href="#DejaVuSans-97"/>
     <use x="186.035156" xlink:href="#DejaVuSans-103"/>
     <use x="249.511719" xlink:href="#DejaVuSans-114"/>
     <use x="290.625" xlink:href="#DejaVuSans-97"/>
     <use x="351.904297" xlink:href="#DejaVuSans-100"/>
    </g>
   </g>
  </g>
  <g id="axes_4">
   <g id="patch_17">
    <path d="M 207.037232 302.2 
L 329.504463 302.2 
L 329.504463 194.28 
L 207.037232 194.28 
z
" style="fill:#ffffff;"/>
   </g>
   <g id="matplotlib.axis_7">
    <g id="xtick_11">
     <g id="line2d_54">
      <path clip-path="url(#pf5772383d6)" d="M 212.53087 302.2 
L 212.53087 194.28 
" style="fill:none;stroke:#b0b0b0;stroke-linecap:square;stroke-width:0.8;"/>
     </g>
     <g id="line2d_55">
      <g>
       <use style="stroke:#000000;stroke-width:0.8;" x="212.53087" xlink:href="#mb3f44b4910" y="302.2"/>
      </g>
     </g>
     <g id="text_30">
      <!-- 0 -->
      <g transform="translate(209.34962 316.798437)scale(0.1 -0.1)">
       <use xlink:href="#DejaVuSans-48"/>
      </g>
     </g>
    </g>
    <g id="xtick_12">
     <g id="line2d_56">
      <path clip-path="url(#pf5772383d6)" d="M 249.057723 302.2 
L 249.057723 194.28 
" style="fill:none;stroke:#b0b0b0;stroke-linecap:square;stroke-width:0.8;"/>
     </g>
     <g id="line2d_57">
      <g>
       <use style="stroke:#000000;stroke-width:0.8;" x="249.057723" xlink:href="#mb3f44b4910" y="302.2"/>
      </g>
     </g>
     <g id="text_31">
      <!-- 500 -->
      <g transform="translate(239.513973 316.798437)scale(0.1 -0.1)">
       <use xlink:href="#DejaVuSans-53"/>
       <use x="63.623047" xlink:href="#DejaVuSans-48"/>
       <use x="127.246094" xlink:href="#DejaVuSans-48"/>
      </g>
     </g>
    </g>
    <g id="xtick_13">
     <g id="line2d_58">
      <path clip-path="url(#pf5772383d6)" d="M 285.584576 302.2 
L 285.584576 194.28 
" style="fill:none;stroke:#b0b0b0;stroke-linecap:square;stroke-width:0.8;"/>
     </g>
     <g id="line2d_59">
      <g>
       <use style="stroke:#000000;stroke-width:0.8;" x="285.584576" xlink:href="#mb3f44b4910" y="302.2"/>
      </g>
     </g>
     <g id="text_32">
      <!-- 1000 -->
      <g transform="translate(272.859576 316.798437)scale(0.1 -0.1)">
       <use xlink:href="#DejaVuSans-49"/>
       <use x="63.623047" xlink:href="#DejaVuSans-48"/>
       <use x="127.246094" xlink:href="#DejaVuSans-48"/>
       <use x="190.869141" xlink:href="#DejaVuSans-48"/>
      </g>
     </g>
    </g>
    <g id="xtick_14">
     <g id="line2d_60">
      <path clip-path="url(#pf5772383d6)" d="M 322.111428 302.2 
L 322.111428 194.28 
" style="fill:none;stroke:#b0b0b0;stroke-linecap:square;stroke-width:0.8;"/>
     </g>
     <g id="line2d_61">
      <g>
       <use style="stroke:#000000;stroke-width:0.8;" x="322.111428" xlink:href="#mb3f44b4910" y="302.2"/>
      </g>
     </g>
     <g id="text_33">
      <!-- 1500 -->
      <g transform="translate(309.386428 316.798437)scale(0.1 -0.1)">
       <use xlink:href="#DejaVuSans-49"/>
       <use x="63.623047" xlink:href="#DejaVuSans-53"/>
       <use x="127.246094" xlink:href="#DejaVuSans-48"/>
       <use x="190.869141" xlink:href="#DejaVuSans-48"/>
      </g>
     </g>
    </g>
    <g id="text_34">
     <!-- Iteration ($k$) -->
     <g transform="translate(238.670847 330.476562)scale(0.1 -0.1)">
      <use transform="translate(0 0.015625)" xlink:href="#DejaVuSans-73"/>
      <use transform="translate(29.492188 0.015625)" xlink:href="#DejaVuSans-116"/>
      <use transform="translate(68.701172 0.015625)" xlink:href="#DejaVuSans-101"/>
      <use transform="translate(130.224609 0.015625)" xlink:href="#DejaVuSans-114"/>
      <use transform="translate(171.337891 0.015625)" xlink:href="#DejaVuSans-97"/>
      <use transform="translate(232.617188 0.015625)" xlink:href="#DejaVuSans-116"/>
      <use transform="translate(271.826172 0.015625)" xlink:href="#DejaVuSans-105"/>
      <use transform="translate(299.609375 0.015625)" xlink:href="#DejaVuSans-111"/>
      <use transform="translate(360.791016 0.015625)" xlink:href="#DejaVuSans-110"/>
      <use transform="translate(424.169922 0.015625)" xlink:href="#DejaVuSans-32"/>
      <use transform="translate(455.957031 0.015625)" xlink:href="#DejaVuSans-40"/>
      <use transform="translate(494.970703 0.015625)" xlink:href="#DejaVuSans-Oblique-107"/>
      <use transform="translate(552.880859 0.015625)" xlink:href="#DejaVuSans-41"/>
     </g>
    </g>
   </g>
   <g id="matplotlib.axis_8">
    <g id="ytick_16">
     <g id="line2d_62">
      <path clip-path="url(#pf5772383d6)" d="M 207.037232 300.173859 
L 329.504463 300.173859 
" style="fill:none;stroke:#b0b0b0;stroke-linecap:square;stroke-width:0.8;"/>
     </g>
     <g id="line2d_63">
      <g>
       <use style="stroke:#000000;stroke-width:0.8;" x="207.037232" xlink:href="#m2981fa6391" y="300.173859"/>
      </g>
     </g>
    </g>
    <g id="ytick_17">
     <g id="line2d_64">
      <path clip-path="url(#pf5772383d6)" d="M 207.037232 276.982949 
L 329.504463 276.982949 
" style="fill:none;stroke:#b0b0b0;stroke-linecap:square;stroke-width:0.8;"/>
     </g>
     <g id="line2d_65">
      <g>
       <use style="stroke:#000000;stroke-width:0.8;" x="207.037232" xlink:href="#m2981fa6391" y="276.982949"/>
      </g>
     </g>
    </g>
    <g id="ytick_18">
     <g id="line2d_66">
      <path clip-path="url(#pf5772383d6)" d="M 207.037232 253.792039 
L 329.504463 253.792039 
" style="fill:none;stroke:#b0b0b0;stroke-linecap:square;stroke-width:0.8;"/>
     </g>
     <g id="line2d_67">
      <g>
       <use style="stroke:#000000;stroke-width:0.8;" x="207.037232" xlink:href="#m2981fa6391" y="253.792039"/>
      </g>
     </g>
    </g>
    <g id="ytick_19">
     <g id="line2d_68">
      <path clip-path="url(#pf5772383d6)" d="M 207.037232 230.60113 
L 329.504463 230.60113 
" style="fill:none;stroke:#b0b0b0;stroke-linecap:square;stroke-width:0.8;"/>
     </g>
     <g id="line2d_69">
      <g>
       <use style="stroke:#000000;stroke-width:0.8;" x="207.037232" xlink:href="#m2981fa6391" y="230.60113"/>
      </g>
     </g>
    </g>
    <g id="ytick_20">
     <g id="line2d_70">
      <path clip-path="url(#pf5772383d6)" d="M 207.037232 207.41022 
L 329.504463 207.41022 
" style="fill:none;stroke:#b0b0b0;stroke-linecap:square;stroke-width:0.8;"/>
     </g>
     <g id="line2d_71">
      <g>
       <use style="stroke:#000000;stroke-width:0.8;" x="207.037232" xlink:href="#m2981fa6391" y="207.41022"/>
      </g>
     </g>
    </g>
    <g id="text_35">
     <!-- Total Loss -->
     <g transform="translate(200.957544 273.39625)rotate(-90)scale(0.1 -0.1)">
      <use xlink:href="#DejaVuSans-84"/>
      <use x="60.818359" xlink:href="#DejaVuSans-111"/>
      <use x="122" xlink:href="#DejaVuSans-116"/>
      <use x="161.208984" xlink:href="#DejaVuSans-97"/>
      <use x="222.488281" xlink:href="#DejaVuSans-108"/>
      <use x="250.271484" xlink:href="#DejaVuSans-32"/>
      <use x="282.058594" xlink:href="#DejaVuSans-76"/>
      <use x="337.755859" xlink:href="#DejaVuSans-111"/>
      <use x="398.9375" xlink:href="#DejaVuSans-115"/>
      <use x="451.037109" xlink:href="#DejaVuSans-115"/>
     </g>
    </g>
   </g>
   <g id="line2d_72">
    <path clip-path="url(#pf5772383d6)" d="M 212.603924 267.904443 
L 212.896139 274.977994 
L 213.334461 280.168659 
L 213.845837 283.400585 
L 214.430267 285.642284 
L 215.08775 287.262461 
L 215.818287 288.483935 
L 216.694931 289.515034 
L 217.790737 290.438537 
L 219.105704 291.24656 
L 220.785939 292.007786 
L 222.904496 292.716462 
L 225.680537 293.400375 
L 229.333222 294.05837 
L 234.154767 294.688522 
L 240.510439 295.283738 
L 248.838562 295.830352 
L 259.796618 296.315836 
L 274.115144 296.716751 
L 294.277966 297.046795 
L 323.937771 297.294545 
L 323.937771 297.294545 
" style="fill:none;stroke:#1f77b4;stroke-linecap:square;stroke-width:1.5;"/>
   </g>
   <g id="patch_18">
    <path d="M 207.037232 302.2 
L 207.037232 194.28 
" style="fill:none;stroke:#000000;stroke-linecap:square;stroke-linejoin:miter;stroke-width:0.8;"/>
   </g>
   <g id="patch_19">
    <path d="M 329.504463 302.2 
L 329.504463 194.28 
" style="fill:none;stroke:#000000;stroke-linecap:square;stroke-linejoin:miter;stroke-width:0.8;"/>
   </g>
   <g id="patch_20">
    <path d="M 207.037232 302.2 
L 329.504463 302.2 
" style="fill:none;stroke:#000000;stroke-linecap:square;stroke-linejoin:miter;stroke-width:0.8;"/>
   </g>
   <g id="patch_21">
    <path d="M 207.037232 194.28 
L 329.504463 194.28 
" style="fill:none;stroke:#000000;stroke-linecap:square;stroke-linejoin:miter;stroke-width:0.8;"/>
   </g>
   <g id="text_36">
    <!-- adam -->
    <g transform="translate(251.26366 188.28)scale(0.12 -0.12)">
     <use xlink:href="#DejaVuSans-97"/>
     <use x="61.279297" xlink:href="#DejaVuSans-100"/>
     <use x="124.755859" xlink:href="#DejaVuSans-97"/>
     <use x="186.035156" xlink:href="#DejaVuSans-109"/>
    </g>
   </g>
  </g>
 </g>
 <defs>
  <clipPath id="p942cfd16cf">
   <rect height="107.92" width="122.467232" x="57.17" y="26.88"/>
  </clipPath>
  <clipPath id="pe0cf77aff3">
   <rect height="107.92" width="122.467232" x="207.037232" y="26.88"/>
  </clipPath>
  <clipPath id="p3fb2b5e630">
   <rect height="107.92" width="122.467232" x="57.17" y="194.28"/>
  </clipPath>
  <clipPath id="pf5772383d6">
   <rect height="107.92" width="122.467232" x="207.037232" y="194.28"/>
  </clipPath>
 </defs>
</svg>
